<svg id="Layer_1" data-name="Layer 1" xmlns="http://www.w3.org/2000/svg" xmlns:xlink="http://www.w3.org/1999/xlink" viewBox="0 0 252.42 125.06"><defs><style>.cls-1{fill:#fff;}.cls-2{fill:url(#linear-gradient);}.cls-3{fill:url(#linear-gradient-2);}.cls-4{fill:url(#linear-gradient-3);}.cls-5{fill:url(#linear-gradient-4);}.cls-6{fill:url(#linear-gradient-5);}.cls-7{fill:url(#linear-gradient-6);}.cls-8{fill:url(#linear-gradient-7);}.cls-9{fill:url(#linear-gradient-8);}.cls-10{fill:url(#linear-gradient-9);}.cls-11{fill:url(#linear-gradient-10);}.cls-12{fill:url(#linear-gradient-11);}.cls-13{fill:url(#linear-gradient-12);}.cls-14{fill:url(#linear-gradient-13);}.cls-15{fill:url(#linear-gradient-14);}.cls-16{fill:url(#linear-gradient-15);}.cls-17{fill:url(#linear-gradient-17);}.cls-18{fill:url(#linear-gradient-18);}.cls-19{fill:url(#linear-gradient-19);}.cls-20{fill:url(#linear-gradient-20);}.cls-21{fill:url(#linear-gradient-21);}.cls-22{fill:url(#linear-gradient-23);}.cls-23{fill:url(#linear-gradient-24);}.cls-24{fill:url(#linear-gradient-25);}.cls-25{fill:url(#linear-gradient-26);}.cls-26{fill:url(#linear-gradient-27);}.cls-27{fill:url(#linear-gradient-28);}.cls-28{fill:url(#linear-gradient-29);}.cls-29{fill:url(#linear-gradient-30);}.cls-30{fill:url(#linear-gradient-31);}.cls-31{fill:url(#linear-gradient-32);}.cls-32{fill:url(#linear-gradient-33);}.cls-33{fill:url(#linear-gradient-34);}.cls-34{fill:url(#linear-gradient-35);}.cls-35{fill:url(#linear-gradient-36);}.cls-36{fill:url(#linear-gradient-37);}</style><linearGradient id="linear-gradient" x1="285.07" y1="744.98" x2="384.66" y2="744.98" gradientTransform="translate(-318.57 -619.97) rotate(-10.59)" gradientUnits="userSpaceOnUse"><stop offset="0" stop-color="#f5bf5d"/><stop offset="0.4" stop-color="#eb5fa6" stop-opacity="0.7"/><stop offset="0.52" stop-color="#d959a1" stop-opacity="0.73"/><stop offset="0.72" stop-color="#aa4794" stop-opacity="0.83"/><stop offset="0.96" stop-color="#5d2b7e" stop-opacity="0.98"/><stop offset="1" stop-color="#51277b"/></linearGradient><linearGradient id="linear-gradient-2" x1="254.24" y1="744.98" x2="382.68" y2="744.98" gradientTransform="translate(-318.57 -619.97) rotate(-10.59)" gradientUnits="userSpaceOnUse"><stop offset="0" stop-color="#f5bf5d"/><stop offset="0.53" stop-color="#eb5fa6" stop-opacity="0.7"/><stop offset="0.6" stop-color="#db59a2" stop-opacity="0.72"/><stop offset="0.71" stop-color="#b04995" stop-opacity="0.78"/><stop offset="0.84" stop-color="#6a3082" stop-opacity="0.87"/><stop offset="0.89" stop-color="#51277b" stop-opacity="0.9"/></linearGradient><linearGradient id="linear-gradient-3" x1="285.07" y1="744.02" x2="384.66" y2="744.02" xlink:href="#linear-gradient"/><linearGradient id="linear-gradient-4" x1="255.86" y1="744.02" x2="378.64" y2="744.02" gradientTransform="translate(-318.57 -619.97) rotate(-10.59)" gradientUnits="userSpaceOnUse"><stop offset="0" stop-color="#f5bf5d"/><stop offset="0.43" stop-color="#eb5fa6" stop-opacity="0.8"/><stop offset="0.53" stop-color="#dc5aa2" stop-opacity="0.82"/><stop offset="0.69" stop-color="#b54b97" stop-opacity="0.87"/><stop offset="0.89" stop-color="#763485" stop-opacity="0.95"/><stop offset="1" stop-color="#51277b"/></linearGradient><linearGradient id="linear-gradient-5" x1="356.59" y1="745.25" x2="377.25" y2="745.25" xlink:href="#linear-gradient"/><linearGradient id="linear-gradient-6" x1="356.59" y1="745.25" x2="377.25" y2="745.25" xlink:href="#linear-gradient-4"/><linearGradient id="linear-gradient-7" x1="286.01" y1="726.61" x2="384.41" y2="726.61" xlink:href="#linear-gradient"/><linearGradient id="linear-gradient-8" x1="257.15" y1="726.61" x2="378.47" y2="726.61" xlink:href="#linear-gradient-4"/><linearGradient id="linear-gradient-9" x1="286.01" y1="722.87" x2="384.41" y2="722.87" xlink:href="#linear-gradient"/><linearGradient id="linear-gradient-10" x1="257.15" y1="722.87" x2="378.47" y2="722.87" xlink:href="#linear-gradient-4"/><linearGradient id="linear-gradient-11" x1="255.86" y1="726.27" x2="378.18" y2="726.27" xlink:href="#linear-gradient-4"/><linearGradient id="linear-gradient-12" x1="285.09" y1="726.27" x2="384.64" y2="726.27" xlink:href="#linear-gradient"/><linearGradient id="linear-gradient-13" x1="254.26" y1="726.27" x2="382.66" y2="726.27" xlink:href="#linear-gradient-2"/><linearGradient id="linear-gradient-14" x1="255.88" y1="726.27" x2="378.62" y2="726.27" xlink:href="#linear-gradient-4"/><linearGradient id="linear-gradient-15" x1="285.07" y1="743.56" x2="384.66" y2="743.56" xlink:href="#linear-gradient"/><linearGradient id="linear-gradient-17" x1="255.86" y1="743.56" x2="378.64" y2="743.56" xlink:href="#linear-gradient-4"/><linearGradient id="linear-gradient-18" x1="285.09" y1="743.56" x2="384.64" y2="743.56" xlink:href="#linear-gradient"/><linearGradient id="linear-gradient-19" x1="254.26" y1="743.56" x2="382.66" y2="743.56" xlink:href="#linear-gradient-2"/><linearGradient id="linear-gradient-20" x1="255.88" y1="743.56" x2="378.62" y2="743.56" xlink:href="#linear-gradient-4"/><linearGradient id="linear-gradient-21" x1="285.07" y1="744.53" x2="384.66" y2="744.53" xlink:href="#linear-gradient"/><linearGradient id="linear-gradient-23" x1="255.86" y1="744.53" x2="378.64" y2="744.53" xlink:href="#linear-gradient-4"/><linearGradient id="linear-gradient-24" x1="285.09" y1="744.53" x2="384.64" y2="744.53" xlink:href="#linear-gradient"/><linearGradient id="linear-gradient-25" x1="254.26" y1="744.53" x2="382.66" y2="744.53" xlink:href="#linear-gradient-2"/><linearGradient id="linear-gradient-26" x1="255.88" y1="744.53" x2="378.62" y2="744.53" xlink:href="#linear-gradient-4"/><linearGradient id="linear-gradient-27" x1="286.01" y1="726.95" x2="384.41" y2="726.95" xlink:href="#linear-gradient"/><linearGradient id="linear-gradient-28" x1="285.09" y1="726.95" x2="384.64" y2="726.95" xlink:href="#linear-gradient"/><linearGradient id="linear-gradient-29" x1="254.26" y1="726.95" x2="382.66" y2="726.95" xlink:href="#linear-gradient-2"/><linearGradient id="linear-gradient-30" x1="255.88" y1="726.95" x2="378.62" y2="726.95" xlink:href="#linear-gradient-4"/><linearGradient id="linear-gradient-31" x1="286.01" y1="723.54" x2="384.41" y2="723.54" xlink:href="#linear-gradient"/><linearGradient id="linear-gradient-32" x1="257.15" y1="723.54" x2="378.47" y2="723.54" xlink:href="#linear-gradient-4"/><linearGradient id="linear-gradient-33" x1="285.09" y1="723.54" x2="384.64" y2="723.54" xlink:href="#linear-gradient"/><linearGradient id="linear-gradient-34" x1="254.26" y1="723.54" x2="382.66" y2="723.54" xlink:href="#linear-gradient-2"/><linearGradient id="linear-gradient-35" x1="93.24" y1="65.6" x2="188.2" y2="25.47" gradientTransform="matrix(1, 0, 0, 1, 0, 0)" xlink:href="#linear-gradient"/><linearGradient id="linear-gradient-36" x1="65.85" y1="62.64" x2="186.58" y2="17.62" gradientTransform="matrix(1, 0, 0, 1, 0, 0)" xlink:href="#linear-gradient-2"/><linearGradient id="linear-gradient-37" x1="66.45" y1="43.92" x2="182.16" y2="18.93" gradientUnits="userSpaceOnUse"><stop offset="0" stop-color="#f5bf5d"/><stop offset="0.43" stop-color="#eb5fa6" stop-opacity="0.92"/><stop offset="0.51" stop-color="#df5ba3" stop-opacity="0.93"/><stop offset="0.64" stop-color="#c0509a" stop-opacity="0.94"/><stop offset="0.82" stop-color="#8e3d8c" stop-opacity="0.97"/><stop offset="1" stop-color="#51277b"/></linearGradient></defs><polygon class="cls-1" points="0 125.06 5.71 125.04 10.22 115.32 34.48 115.32 36.88 110.14 6.92 110.14 0 125.06"/><polygon class="cls-1" points="41.2 100.81 11.24 100.81 8.84 105.99 38.8 105.99 41.2 100.81"/><polygon class="cls-1" points="211.22 124.97 211.22 125.06 241.18 124.97 243.58 119.79 219.37 119.79 221.44 115.32 245.7 115.32 248.1 110.14 218.14 110.14 211.22 124.97"/><polygon class="cls-1" points="222.46 100.81 220.06 105.99 250.02 105.99 252.42 100.81 222.46 100.81"/><path class="cls-1" d="M74.11,106a3.65,3.65,0,0,0-3.31-5.18H52.26A8.93,8.93,0,0,0,44.15,106l-4.52,9.74h0l-1.88,4.06h0A3.64,3.64,0,0,0,41.07,125H59.61a8.93,8.93,0,0,0,8.11-5.18L74.09,106Zm-5.73,0L62,119.79H43.47l6.4-13.8Z"/><path class="cls-1" d="M176.41,100.81H157.87a8.93,8.93,0,0,0-8.11,5.18H174l-2,4.3H147.76l-2.52,5.43-1.87,4.07h0L141,125v0h5.71l2.4-5.18,2-4.31h18.53L165.23,125h5.63l8.84-19h0A3.65,3.65,0,0,0,176.41,100.81Z"/><path class="cls-1" d="M193.57,110.14l-2.4,5.18h13.69l-1.14,2.45a3.48,3.48,0,0,1-3.15,2H186.11a1.2,1.2,0,0,1-1.08-1.7L189.71,108a3.48,3.48,0,0,1,3.15-2l22,0c1.09-2.41,0,0,2.43-5.15H193a9,9,0,0,0-8.12,5.18l-4.51,9.74h0l-1.88,4.06h0a3.64,3.64,0,0,0,3.31,5.17h18.54a8.93,8.93,0,0,0,8.11-5.18l4.46-9.65Z"/><path class="cls-1" d="M137.71,110.3H118.2l2-4.31h24.24c2.44-5.18,0,0,2.44-5.18H122.59a8.94,8.94,0,0,0-8.11,5.18l-2.39,5.28a3,3,0,0,0,2.69,4.21h19.56l-2,4.31H108.09c-1.11,2.41,0,0-2.48,5.17H130a8.94,8.94,0,0,0,8.11-5.18s2.56-5.48,2.61-5.65A3.06,3.06,0,0,0,137.71,110.3Z"/><path class="cls-1" d="M106,100.81H81.64L79.27,106h24.28l-2,4.3H77.29l-2.49,5.43L70.53,125h5.71l4.4-9.49h10.8l3.49,9.58h5.66l-3.43-9.58h2.62a7.86,7.86,0,0,0,7.18-4.65l2.3-4.84h0A3.65,3.65,0,0,0,106,100.81Z"/><path class="cls-2" d="M178.2,44.74l.92.38Z"/><path class="cls-3" d="M178.2,44.74l.92.38Z"/><path class="cls-4" d="M176.42,44l1.16.46Z"/><path class="cls-5" d="M176.42,44l1.16.46Z"/><polygon class="cls-6" points="179.12 45.12 179.12 45.12 179.12 45.12 179.12 45.12"/><polygon class="cls-7" points="179.12 45.12 179.12 45.12 179.12 45.12 179.12 45.12"/><path class="cls-8" d="M185.25,25l-.06,0h0Z"/><path class="cls-9" d="M185.25,25l-.06,0h0Z"/><path class="cls-10" d="M171.87,20.57c3.68,1.1,8.14,2.52,12.18,4A85.55,85.55,0,0,0,171.87,20.57Z"/><path class="cls-11" d="M171.87,20.57c3.68,1.1,8.14,2.52,12.18,4A85.55,85.55,0,0,0,171.87,20.57Z"/><path class="cls-12" d="M184.74,24.82l-.69-.25,1.12.43C185,24.94,184.89,24.87,184.74,24.82Z"/><path class="cls-13" d="M184.74,24.82l-.69-.25,1.12.43C185,24.94,184.89,24.87,184.74,24.82Z"/><path class="cls-14" d="M184.74,24.82l-.69-.25,1.12.43C185,24.94,184.89,24.87,184.74,24.82Z"/><path class="cls-15" d="M184.74,24.82l-.69-.25,1.12.43C185,24.94,184.89,24.87,184.74,24.82Z"/><path class="cls-16" d="M176,43.86l.45.17Z"/><path class="cls-16" d="M176,43.86l.45.17Z"/><path class="cls-17" d="M176,43.86l.45.17Z"/><path class="cls-18" d="M176,43.86l.45.17Z"/><path class="cls-19" d="M176,43.86l.45.17Z"/><path class="cls-20" d="M176,43.86l.45.17Z"/><path class="cls-21" d="M177.77,44.57l-.19-.08.62.25Z"/><path class="cls-21" d="M177.77,44.57l-.19-.08.62.25Z"/><path class="cls-22" d="M177.77,44.57l-.19-.08.62.25Z"/><path class="cls-23" d="M177.77,44.57l-.19-.08.62.25Z"/><path class="cls-24" d="M177.77,44.57l-.19-.08.62.25Z"/><path class="cls-25" d="M177.77,44.57l-.19-.08.62.25Z"/><path class="cls-26" d="M185.25,25l.78.49A5.14,5.14,0,0,0,185.25,25Z"/><path class="cls-27" d="M185.25,25l.78.49A5.14,5.14,0,0,0,185.25,25Z"/><path class="cls-28" d="M185.25,25l.78.49A5.14,5.14,0,0,0,185.25,25Z"/><path class="cls-29" d="M185.25,25l.78.49A5.14,5.14,0,0,0,185.25,25Z"/><path class="cls-30" d="M185.25,25l-.08,0-1.12-.43c-4-1.48-8.5-2.9-12.18-4,4.34,1.3,9.65,3.22,14.2,5l0,0Z"/><path class="cls-31" d="M185.25,25l-.08,0-1.12-.43c-4-1.48-8.5-2.9-12.18-4,4.34,1.3,9.65,3.22,14.2,5l0,0Z"/><path class="cls-32" d="M185.25,25l-.08,0-1.12-.43c-4-1.48-8.5-2.9-12.18-4,4.34,1.3,9.65,3.22,14.2,5l0,0Z"/><path class="cls-33" d="M185.25,25l-.08,0-1.12-.43c-4-1.48-8.5-2.9-12.18-4,4.34,1.3,9.65,3.22,14.2,5l0,0Z"/><path class="cls-1" d="M186.07,25.56h0a8.56,8.56,0,0,0-.82-.52l-8.66-4.41c-2.68-1.29-2.09-2.27-3.11-5.08A17.3,17.3,0,0,0,172,12.4C167,10.08,153,10.6,151.63,0a15.37,15.37,0,0,0-6.19,9.75h0C90.09,5.51,64.43,36,64.43,36A100.57,100.57,0,0,1,97,29.49c-21.15,16.26-27.8,40.77-27.8,40.77a132.06,132.06,0,0,1,42.88-25.92c-6.74,9.53-10.65,22.3-9,39.1,0,0,13.24-50.55,76.1-38.32h0a45.92,45.92,0,0,1,8.23-13.6,3.12,3.12,0,0,0,.63-1.81A4.8,4.8,0,0,0,186.07,25.56Zm-16.84-9.29a1.33,1.33,0,0,1,1.71.82l1.2,3.48S167,18.92,164.3,18.4Z"/><path class="cls-34" d="M186.07,25.56c-4.55-1.77-9.86-3.69-14.2-5a36,36,0,0,0-4.47-.73C157,18.92,140,21.67,126,31a52.67,52.67,0,0,0-14,13.38c-6.74,9.53-10.65,22.3-9,39.1,0,0,13.24-50.55,76.1-38.32h0a45.92,45.92,0,0,1,8.23-13.6,3.12,3.12,0,0,0,.63-1.81A4.8,4.8,0,0,0,186.07,25.56ZM178.2,44.74l-.62-.25.19.08.43.17.92.38Z"/><path class="cls-35" d="M186.07,25.56c-4.55-1.77-9.86-3.69-14.2-5-4-1.18-7-2-7.67-2.16C133.14,11,111.6,18.25,97,29.49c-21.15,16.26-27.8,40.77-27.8,40.77a132.06,132.06,0,0,1,42.88-25.92c18.05-6.51,40.33-9.42,63.91-.48l.45.17,1.16.46.19.08.43.17.92.38h0a45.92,45.92,0,0,1,8.23-13.6,3.12,3.12,0,0,0,.63-1.81A4.8,4.8,0,0,0,186.07,25.56Z"/><path class="cls-36" d="M186.07,25.56a8,8,0,0,0-.82-.52l-8.66-4.41c-2.68-1.29-2.09-2.27-3.11-5.08A17.3,17.3,0,0,0,172,12.4C167,10.08,153,10.6,151.63,0a15.37,15.37,0,0,0-6.19,9.75h0C90.09,5.51,64.43,36,64.43,36A100.57,100.57,0,0,1,97,29.49,160.63,160.63,0,0,1,126,31a234.82,234.82,0,0,1,50,12.9l.45.17,1.16.46.19.08.43.17.92.38h0a45.92,45.92,0,0,1,8.23-13.6,3.12,3.12,0,0,0,.63-1.81C188.1,28.07,186.28,25.84,186.07,25.56Zm-16.84-9.29a1.33,1.33,0,0,1,1.71.82l1.2,3.48S167,18.92,164.3,18.4Z"/></svg>